<svg width="13" height="14" viewBox="0 0 13 14" fill="none" xmlns="http://www.w3.org/2000/svg">
<path d="M12.804 5.76938C12.886 6.20871 12.9307 6.66805 12.9307 7.14738C12.9307 10.8967 10.4213 13.5627 6.63133 13.5627C5.76944 13.563 4.91593 13.3934 4.1196 13.0637C3.32326 12.734 2.59969 12.2506 1.99024 11.6411C1.38079 11.0317 0.897395 10.3081 0.567683 9.51178C0.237971 8.71544 0.0684021 7.86194 0.0686649 7.00005C0.0684021 6.13815 0.237971 5.28465 0.567683 4.48831C0.897395 3.69197 1.38079 2.96841 1.99024 2.35895C2.59969 1.7495 3.32326 1.26611 4.1196 0.936396C4.91593 0.606684 5.76944 0.437115 6.63133 0.437378C8.40333 0.437378 9.884 1.08938 11.02 2.14805L9.17 3.99804V3.99338C8.48133 3.33738 7.60733 3.00071 6.63133 3.00071C4.466 3.00071 2.706 4.83005 2.706 6.99605C2.706 9.16138 4.466 10.9947 6.63133 10.9947C8.596 10.9947 9.93333 9.87138 10.208 8.32871H6.63133V5.76938H12.8047H12.804Z" fill="#0E0E12"/>
</svg>
